<svg version="1.1" id="Layer_1" xmlns="http://www.w3.org/2000/svg" xmlns:xlink="http://www.w3.org/1999/xlink" x="0px" y="0px"
	 width="100%" viewBox="0 0 1040 824" enable-background="new 0 0 1040 824" xml:space="preserve">
<path fill="#000000" opacity="1.000000" stroke="none" 
	d="
M695.000000,825.000000 
	C463.333344,825.000000 232.166687,825.000000 1.000031,825.000000 
	C1.000021,550.333374 1.000021,275.666718 1.000010,1.000068 
	C347.666626,1.000045 694.333252,1.000045 1041.000000,1.000023 
	C1041.000000,275.666595 1041.000000,550.333191 1041.000000,824.999878 
	C925.833313,825.000000 810.666687,825.000000 695.000000,825.000000 
M926.892334,493.579926 
	C927.097351,493.289154 927.302368,492.998383 928.023132,492.247345 
	C928.656189,491.145477 929.289246,490.043579 930.709412,489.421906 
	C933.154907,489.421906 935.600403,489.421906 938.646179,489.421906 
	C937.282898,497.675018 936.031433,505.251160 934.715393,513.218262 
	C927.095398,513.218262 919.868713,513.218262 912.642029,513.218262 
	C919.618286,514.020325 926.576965,514.163940 933.518616,513.883667 
	C934.722534,513.835083 936.606018,512.164795 936.884094,510.948303 
	C937.890625,506.545776 938.389709,502.023224 938.995300,497.534485 
	C939.414673,494.425995 939.694275,491.298645 940.122620,487.391815 
	C936.182800,488.018311 933.092224,488.509796 929.283997,488.956635 
	C928.477661,489.927307 927.671265,490.897980 926.372253,492.009796 
	C926.199951,492.293335 926.027710,492.576874 925.368652,493.010406 
	C925.199585,493.293091 925.030518,493.575806 924.161377,493.918884 
	C923.210754,494.425018 922.260193,494.931152 921.450012,495.362518 
	C922.815796,486.309937 924.147278,477.484589 925.478760,468.659241 
	C925.012573,468.594482 924.546448,468.529694 924.080261,468.464935 
	C922.435303,478.412323 920.790405,488.359680 918.902039,499.779297 
	C921.968201,497.409363 923.882751,495.929535 926.066528,494.312744 
	C926.235535,494.189972 926.353455,494.029633 926.892334,493.579926 
M933.668396,412.873505 
	C933.787659,412.257568 933.906921,411.641632 934.719421,410.838440 
	C936.129089,408.279419 937.538818,405.720367 939.427246,402.292389 
	C931.293213,402.292389 924.207825,402.292389 917.122437,402.292389 
	C917.107483,402.489685 917.092529,402.686951 917.077576,402.884247 
	C923.590759,402.884247 930.103943,402.884247 937.218506,402.884247 
	C935.785339,405.868896 934.666504,408.199005 933.114624,410.910370 
	C932.881104,411.439301 932.647644,411.968231 932.040955,412.962372 
	C932.092346,413.230164 932.143738,413.497955 932.195190,413.765778 
	C932.479431,413.527527 932.763672,413.289246 933.668396,412.873505 
M149.113007,214.328949 
	C150.360184,213.088165 151.607346,211.847382 153.266815,210.358932 
	C153.395218,209.930893 153.523621,209.502853 153.652008,209.074814 
	C153.068085,209.347992 152.484177,209.621170 151.300293,210.127029 
	C150.168579,211.389099 149.036880,212.651184 147.343079,214.093124 
	C146.865387,214.697205 146.387680,215.301285 145.266312,216.156448 
	C143.505234,219.101654 141.744156,222.046860 139.287476,225.128067 
	C135.786484,229.091095 133.241455,233.452545 132.915009,239.896988 
	C135.841080,234.283981 138.266052,229.632233 141.100388,224.418182 
	C142.977844,221.815704 144.855316,219.213242 147.156525,216.292358 
	C147.634857,215.772736 148.113190,215.253113 149.113007,214.328949 
M610.969360,258.401764 
	C610.683411,258.231506 610.397522,258.061249 609.860718,257.258118 
	C607.262695,255.481049 604.664612,253.703995 601.846924,251.250076 
	C599.159607,249.691315 596.472290,248.132568 593.785034,246.573807 
	C593.607544,246.930054 593.430115,247.286301 593.252625,247.642548 
	C596.019897,249.278152 598.787170,250.913773 602.001160,253.029877 
	C604.527649,254.958832 607.054077,256.887787 609.760132,259.103760 
	C609.907104,259.283539 610.090027,259.411957 610.742676,260.005463 
	C611.843628,260.650970 612.944580,261.296509 613.907471,262.627686 
	C616.117554,264.931000 618.327576,267.234283 620.884949,270.112915 
	C623.040894,273.118408 625.196838,276.123901 627.352783,279.129364 
	C627.881409,278.720734 628.409973,278.312103 628.938599,277.903442 
	C626.315979,274.912872 623.693298,271.922272 621.045410,268.222290 
	C618.679932,266.163391 616.314453,264.104492 614.036255,261.326111 
	C613.054932,260.518311 612.073669,259.710541 610.969360,258.401764 
M802.350708,370.671967 
	C804.298889,370.671967 806.247009,370.671967 808.195190,370.671967 
	C808.195129,370.465363 808.195007,370.258759 808.194946,370.052155 
	C806.106323,370.052155 804.017761,370.052155 802.007080,369.111847 
	C801.962585,363.060333 801.918091,357.008789 801.593628,350.133179 
	C791.173340,350.133179 780.753113,350.133179 770.492554,350.133179 
	C769.949280,355.297546 769.440308,360.135406 768.343384,365.144043 
	C768.293396,365.778748 768.243408,366.413452 768.193420,367.048157 
	C768.472595,367.042084 768.751709,367.036011 769.030884,367.029938 
	C768.940186,366.319122 768.849426,365.608337 769.505371,365.285706 
	C770.390869,360.674744 771.276306,356.063782 772.230164,351.096985 
	C781.404785,351.096985 791.129272,351.096985 800.934631,352.018036 
	C800.941833,353.973236 800.845032,355.935547 800.977783,357.882202 
	C801.253113,361.917908 801.650452,365.945282 802.350708,370.671967 
M656.441345,347.919525 
	C661.309448,351.524384 666.177551,355.129211 671.693970,359.308929 
	C683.546082,359.583801 695.397949,359.943329 707.250793,359.980042 
	C708.247620,359.983154 709.251160,357.819031 710.251587,356.661804 
	C707.815186,357.150482 706.150635,358.880066 704.498718,358.868103 
	C693.332458,358.787048 682.168884,358.337494 670.895325,357.318604 
	C666.101746,353.746582 662.255920,348.594666 655.630310,347.395935 
	C655.376648,346.708954 655.322876,345.790527 654.837769,345.371613 
	C650.989136,342.048737 647.058411,338.820831 643.152954,335.563751 
	C643.781372,337.477051 644.781067,339.548218 646.365112,340.966797 
	C649.285217,343.581848 652.548462,345.813629 656.441345,347.919525 
M259.719147,183.192383 
	C253.591263,183.121262 247.462067,182.949097 241.336105,183.028076 
	C238.838715,183.060257 236.348312,183.637238 232.944260,183.925308 
	C227.748047,184.168121 222.551849,184.410919 217.355637,184.653732 
	C217.378128,184.734955 217.400604,184.816162 217.423096,184.897385 
	C231.959091,184.897385 246.495071,184.897385 261.875183,185.011826 
	C265.765808,185.011826 269.656433,185.011826 273.547058,185.011826 
	C273.533905,184.708832 273.520752,184.405838 273.507599,184.102844 
	C269.348480,184.102844 265.189362,184.102844 260.617706,183.941696 
	C260.617706,183.941696 260.175201,183.960037 259.719147,183.192383 
M110.962944,379.861053 
	C106.965050,379.916412 102.967155,379.971741 98.159241,380.365936 
	C98.106476,381.194977 98.007683,382.024048 98.007538,382.853088 
	C98.000107,425.680359 98.000381,468.507660 98.006363,511.334930 
	C98.006470,512.119202 98.085014,512.903442 98.128258,513.711914 
	C119.462692,513.711914 140.461716,513.711914 161.460739,513.711914 
	C161.461945,513.470886 161.463150,513.229797 161.464371,512.988770 
	C140.883270,512.988770 120.302177,512.988770 99.276733,512.988770 
	C99.276733,510.769012 99.276749,508.978607 99.276733,507.188202 
	C99.276459,479.692078 99.251869,452.195953 99.285828,424.699860 
	C99.303719,410.209229 99.423820,395.718719 100.366333,381.218018 
	C104.337402,381.047150 108.308464,380.876312 113.062706,380.595306 
	C113.397820,378.920227 113.979469,377.251404 114.021881,375.568939 
	C114.149788,370.494659 114.068039,365.415070 114.068039,359.863892 
	C129.683746,359.863892 144.546631,359.863892 159.409515,359.863892 
	C144.621689,359.002319 129.848053,358.921936 115.080048,359.172882 
	C114.032486,359.190674 112.232605,361.591431 112.139954,362.975037 
	C111.762848,368.606873 111.914757,374.274139 110.962944,379.861053 
M138.964478,314.840271 
	C141.514252,321.235168 144.064026,327.630066 146.613800,334.024994 
	C147.161453,333.795502 147.709106,333.566040 148.256760,333.336548 
	C145.145035,326.311554 142.033310,319.286530 138.907318,311.476715 
	C130.492599,289.044250 126.276794,266.161133 131.490280,242.101028 
	C129.694916,246.655334 128.332230,251.243607 128.057236,255.896149 
	C127.187187,270.616089 128.228134,285.204224 133.048203,299.278473 
	C134.764267,304.289276 136.990982,309.125153 138.964478,314.840271 
M860.758057,638.813782 
	C862.181213,631.423523 864.732483,624.037964 864.763184,616.641907 
	C864.809204,605.543762 864.653381,594.280396 860.151611,583.599548 
	C857.996826,578.487183 857.711731,572.601379 855.676819,567.420654 
	C852.530640,559.410950 848.739990,551.642456 844.978027,543.890381 
	C841.824829,537.392639 838.564636,530.920654 834.882324,524.715820 
	C832.688110,521.018555 829.587830,517.858887 826.894897,514.457581 
	C827.256226,515.866272 827.872437,517.083374 828.528687,518.278442 
	C835.232239,530.485474 842.722656,542.332886 848.487427,554.967773 
	C860.396973,581.070618 867.706787,608.102234 859.680359,637.690918 
	C855.595520,648.665771 849.518921,658.420532 841.824951,667.348999 
	C844.128174,665.916626 846.010681,664.081360 847.537231,661.986694 
	C852.698669,654.904053 858.690491,648.248901 860.758057,638.813782 
M400.472717,586.189392 
	C400.566193,587.604187 400.659668,589.019043 400.758514,590.515198 
	C451.907562,590.515198 502.566681,590.643494 553.223755,590.381653 
	C561.141357,590.340759 569.279175,589.393921 576.922180,587.376953 
	C607.634338,579.271790 625.428467,557.986023 634.777466,528.673889 
	C636.354187,523.730286 637.149414,518.537415 638.456421,512.798096 
	C620.059631,512.798096 602.654724,512.798096 584.838257,512.798096 
	C584.838257,509.219452 584.838257,506.133026 584.838257,502.658020 
	C580.649231,502.658020 576.881531,502.658020 573.042664,502.658020 
	C573.042664,455.022156 573.042664,407.795868 573.042664,360.081360 
	C588.791626,360.081360 604.215271,360.081360 619.536377,360.081360 
	C623.024597,346.074768 622.301636,332.483063 619.804138,318.993469 
	C616.175659,299.395111 607.004700,282.934601 590.322388,271.476440 
	C576.372742,261.895233 560.447266,258.963257 543.784546,258.980774 
	C497.789642,259.029114 451.794678,258.997406 405.799744,258.997345 
	C404.176758,258.997314 402.553772,258.997345 400.472076,258.997345 
	C400.472076,261.241089 400.472076,263.040771 400.472076,264.840454 
	C400.472137,298.670044 400.384308,332.500153 400.589203,366.328522 
	C400.613403,370.327850 401.270355,374.933105 403.329865,378.182709 
	C407.547394,384.837311 406.392090,390.226135 401.720215,395.681854 
	C401.425018,396.026550 401.276093,396.496490 401.116943,396.798523 
	C403.627228,400.557281 406.034302,404.161499 408.477417,407.819702 
	C425.892670,381.007660 451.327362,376.554413 480.529449,381.410065 
	C480.529449,365.449982 480.529449,349.987274 480.529449,334.524536 
	C480.529449,319.115479 480.529449,303.706390 480.529449,288.285828 
	C490.852051,288.285828 500.550720,287.609131 510.123047,288.421387 
	C532.669006,290.334503 543.874023,301.640503 545.800964,324.534668 
	C546.957458,338.274628 547.226013,352.112000 547.356506,365.910675 
	C547.591431,390.739044 547.524292,415.571869 547.358032,440.401367 
	C547.310669,447.481995 547.409729,454.262360 551.900635,460.327759 
	C553.428406,462.391174 554.157166,465.160065 554.841187,467.716248 
	C560.196716,487.730560 560.533875,507.900269 555.709167,528.010681 
	C551.740295,544.553467 541.338623,555.913757 524.556458,558.786865 
	C510.274933,561.231934 495.545135,561.058960 480.542084,562.076233 
	C480.542084,544.347229 480.542084,528.080505 480.542084,511.742950 
	C442.811523,520.236023 414.539764,511.707916 403.836121,470.558746 
	C399.394653,475.313995 399.145721,482.667511 403.008118,487.386993 
	C412.004181,498.379364 411.962738,513.062500 403.259979,524.221252 
	C401.690094,526.234131 400.625336,529.212524 400.592957,531.761230 
	C400.366516,549.589722 400.472839,567.422424 400.472717,586.189392 
M320.713898,391.151550 
	C333.477692,381.390198 348.420227,380.052826 364.188782,380.270630 
	C364.188782,332.473083 364.188782,284.910278 364.188782,236.879761 
	C380.313660,236.879761 395.963165,236.879761 411.612671,236.879761 
	C410.352295,235.642487 409.033875,235.022552 407.670654,234.525650 
	C363.415405,218.394424 318.078918,206.753677 271.087982,202.313248 
	C245.075226,199.855164 219.157318,200.314850 193.848053,207.855743 
	C179.598572,212.101364 166.520035,218.488770 157.221161,230.722305 
	C144.774368,247.097229 144.408005,265.584564 148.521927,284.560242 
	C154.402649,311.685333 167.351395,335.627441 182.896866,358.287750 
	C183.800873,359.605530 185.603027,360.655334 187.191727,361.101379 
	C203.227798,365.603851 213.433182,377.142975 214.510895,394.046112 
	C214.969193,401.234253 219.453354,404.614258 224.427277,410.015289 
	C224.085190,406.730347 224.188263,404.724213 223.620956,402.930115 
	C222.610519,399.734589 223.635162,397.919556 226.238205,395.844666 
	C241.745773,383.483459 259.430573,378.527985 278.967194,380.161682 
	C289.664764,381.056244 299.573090,384.311646 306.573669,393.213257 
	C308.431091,395.575043 309.787476,398.330933 311.373901,400.905853 
	C311.006165,400.369568 310.638397,399.833252 310.270660,399.296967 
	C313.568390,396.734772 316.866119,394.172607 320.713898,391.151550 
M666.829895,506.248810 
	C661.786011,508.341217 660.085205,512.213684 658.988953,517.534241 
	C656.819946,528.061096 654.473145,538.777344 650.330994,548.629578 
	C637.677490,578.726257 615.761047,598.935181 583.986511,608.138550 
	C564.311584,613.837341 544.412231,617.043640 523.901855,616.011597 
	C521.909729,615.911316 519.908142,615.998169 517.910889,615.998169 
	C519.281677,617.519958 520.597534,618.225098 521.958496,618.828796 
	C526.370483,620.785706 530.780945,622.748047 535.223877,624.633057 
	C595.388977,650.159485 656.986755,670.540771 722.567078,676.466736 
	C748.274292,678.789795 773.855225,678.308533 798.828247,670.938477 
	C813.238342,666.685791 826.514648,660.208130 835.768860,647.656128 
	C847.568237,631.651855 848.183777,613.661560 844.425598,595.135498 
	C839.484375,570.777527 828.243591,549.088501 815.185608,528.247864 
	C810.106628,520.141663 805.512695,511.418549 794.704346,509.473846 
	C793.790710,509.309448 793.006653,508.454895 792.149292,507.942993 
	C782.037720,501.906036 771.923706,495.873260 761.573975,489.698364 
	C761.573975,497.118896 761.573975,504.861603 761.573975,512.644409 
	C750.691956,512.644409 740.304810,512.644409 729.578491,512.644409 
	C729.578491,509.332825 729.578491,506.375671 729.578491,503.167664 
	C725.691895,503.167664 722.152771,503.167664 718.091431,503.167664 
	C718.091431,506.550568 718.091431,509.621948 718.091431,512.762451 
	C707.305786,512.762451 697.046143,512.762451 686.487183,512.762451 
	C686.337463,509.473389 686.197205,506.391357 686.035583,502.839752 
	C682.638916,502.839752 679.508911,502.928009 676.386169,502.815948 
	C673.001160,502.694397 669.682068,502.562439 666.829895,506.248810 
M337.098480,481.191559 
	C337.098480,484.454926 337.098480,487.718292 337.098480,490.025818 
	C345.599609,491.056213 353.656921,491.238403 361.268524,493.173676 
	C369.244934,495.201752 372.403137,501.572052 371.045288,509.339966 
	C369.890015,515.949280 364.114136,520.194702 356.334290,520.152954 
	C345.056122,520.092346 334.535126,511.416412 329.947144,498.393280 
	C327.749390,492.154907 327.749390,492.154907 320.404541,493.616425 
	C319.904236,500.306946 319.179443,507.088074 319.023529,513.882202 
	C318.977600,515.884644 319.969482,518.899841 321.466003,519.775391 
	C327.564453,523.343079 333.740662,527.368652 340.441742,529.198303 
	C356.734680,533.647095 373.147400,533.772827 388.403015,525.106323 
	C405.385925,515.458557 405.275635,496.174591 388.127075,486.716461 
	C382.809601,483.783630 376.730652,482.231506 370.928680,480.019928 
	C372.232544,479.686951 373.660522,479.344055 375.076538,478.957214 
	C387.161407,475.655670 396.172943,468.833191 401.002228,456.901978 
	C409.716095,435.373596 404.390839,412.850067 386.281708,395.425507 
	C394.356689,392.042328 397.794647,388.438263 396.566650,384.643555 
	C393.486206,375.124329 391.813354,373.664764 385.394226,374.952850 
	C385.277191,375.409027 385.161224,375.889069 385.030762,376.365204 
	C382.213257,386.649963 376.374451,389.873657 365.989349,389.511719 
	C356.952240,389.196777 347.618011,389.852539 338.825775,391.869507 
	C326.234039,394.758148 318.083374,403.601959 314.369263,415.897949 
	C310.793701,427.735138 310.744873,439.918823 313.431396,451.953949 
	C315.535736,461.381287 320.400085,469.286804 328.979584,474.229645 
	C332.800476,476.430939 337.075592,477.843872 341.290192,479.678009 
	C339.967194,479.955536 338.741791,480.212616 337.098480,481.191559 
M661.325928,435.096985 
	C657.466919,433.205017 653.607910,431.313080 649.705627,429.399902 
	C651.412964,428.201355 653.152832,427.200317 654.634338,425.903931 
	C663.736938,417.939240 667.413574,399.874756 662.653931,386.875549 
	C658.320923,375.041718 649.075256,369.137390 634.400696,369.058807 
	C618.909790,368.975861 603.418030,369.039551 587.926636,369.039185 
	C585.830688,369.039154 583.734802,369.039185 581.636169,369.039185 
	C581.636169,411.060364 581.636169,452.420563 581.636169,494.003906 
	C600.832520,494.003906 619.648193,494.055145 638.463440,493.987274 
	C652.815308,493.935516 663.010376,487.064270 668.366760,474.046997 
	C673.924438,460.540894 671.298035,444.909637 661.325928,435.096985 
M130.560730,494.002136 
	C146.216782,494.002136 161.872833,494.007935 177.528885,494.000702 
	C198.476517,493.991028 211.278290,482.362366 212.582809,461.367523 
	C213.340942,449.165894 209.316071,433.766113 192.117447,430.362701 
	C191.766113,430.293152 191.493942,429.823669 191.089127,429.453125 
	C192.886124,428.211761 194.619156,427.223755 196.109055,425.951111 
	C205.099564,418.271576 208.846588,399.829224 204.105087,386.948303 
	C199.721436,375.039490 190.868042,369.196899 176.447830,369.075989 
	C160.626221,368.943329 144.802643,369.043427 128.979935,369.042206 
	C127.048119,369.042053 125.116295,369.042175 123.272034,369.042175 
	C123.272034,411.054352 123.272034,452.420166 123.272034,494.002167 
	C125.611305,494.002167 127.594429,494.002167 130.560730,494.002136 
M268.033020,422.564972 
	C259.329681,425.319763 250.489624,427.709473 241.952286,430.907349 
	C225.553284,437.050049 218.055618,448.245758 218.353561,465.729065 
	C218.521362,475.576111 221.149323,484.418182 229.960373,490.362671 
	C241.695984,498.280273 259.148041,497.659607 270.121338,488.784515 
	C270.952972,488.111908 271.879547,487.556641 273.111023,486.705566 
	C273.271240,489.351227 273.398529,491.452911 273.529663,493.617920 
	C283.676453,493.617920 293.522003,493.617920 303.572662,493.617920 
	C303.572662,465.611115 303.717010,437.993561 303.497772,410.378876 
	C303.416260,400.114227 297.473267,393.630371 287.909637,390.841492 
	C268.502625,385.182068 250.803329,389.688049 234.440811,400.765350 
	C233.532562,401.380219 232.562698,402.885559 232.671295,403.859314 
	C233.308472,409.572754 234.257919,415.251343 235.082916,420.812439 
	C242.682541,421.331573 242.643707,421.311096 245.704742,415.501648 
	C249.308563,408.662018 254.181778,403.091827 261.919708,400.946411 
	C268.272675,399.184967 272.401123,402.116241 273.060089,408.591064 
	C273.312103,411.067017 273.019196,413.608368 273.376740,416.061310 
	C273.923645,419.813446 272.278137,421.636108 268.033020,422.564972 
M479.964813,478.500854 
	C473.476471,484.427704 466.062347,487.584106 457.628571,483.593536 
	C448.520172,479.283722 444.774811,470.900391 442.429016,461.628754 
	C448.237762,461.025085 453.447479,460.915466 458.467102,459.882416 
	C474.581635,456.566010 488.930634,450.035004 497.966339,435.373016 
	C507.921661,419.218750 503.710693,401.384888 487.613831,393.760864 
	C481.476135,390.853851 474.323883,389.472076 467.491394,388.755920 
	C438.379395,385.704559 410.572510,402.063965 409.577087,438.283203 
	C408.725800,469.258514 424.044220,492.210938 454.188141,495.495392 
	C469.616180,497.176422 484.016266,493.725372 496.815033,484.871429 
	C499.439209,483.056091 502.553284,479.702515 502.656189,476.953674 
	C502.874847,471.114166 501.261536,465.206085 500.447632,459.656097 
	C494.429626,457.881317 491.219025,459.539825 488.959290,465.196564 
	C487.101532,469.847076 483.366272,473.747650 479.964813,478.500854 
M828.031555,465.360931 
	C827.667725,462.801971 827.303955,460.243011 826.964783,457.857483 
	C823.943359,457.857483 821.522217,457.857483 818.960571,457.857483 
	C818.601196,459.577179 818.491211,461.102661 817.961365,462.464874 
	C815.750732,468.148041 814.004944,474.141174 810.879028,479.285645 
	C809.268433,481.936279 804.890503,484.737213 802.182556,484.370636 
	C799.510620,484.008942 796.992126,479.980743 795.123169,477.096588 
	C793.842957,475.120911 793.287659,472.354126 793.266785,469.933655 
	C793.072510,447.307892 793.063660,424.680542 793.014282,402.053589 
	C793.013977,401.931213 793.202698,401.808441 793.682678,401.222595 
	C800.702209,401.222595 808.119019,401.222595 815.715698,401.222595 
	C815.715698,397.372864 815.715698,393.990417 815.715698,390.143738 
	C808.014526,390.143738 800.598389,390.143738 792.538574,390.143738 
	C792.538574,379.808685 792.538574,369.924652 792.538574,359.855896 
	C788.095154,359.855896 784.308228,359.855896 780.390808,359.855896 
	C779.943848,361.428558 779.759521,363.151703 779.002686,364.569275 
	C773.169983,375.494598 771.030457,389.906342 754.394287,390.915314 
	C754.394287,394.167999 754.394287,397.426453 754.394287,400.905884 
	C757.035217,401.109436 759.453613,401.295807 762.385498,401.521790 
	C762.385498,403.529572 762.385437,405.321106 762.385437,407.112671 
	C762.385681,425.428558 762.405151,443.744446 762.375610,462.060272 
	C762.365540,468.322784 763.332642,474.291138 766.844299,479.660553 
	C778.749451,497.863739 809.089966,501.365417 825.098022,486.421844 
	C828.437439,483.304474 830.780884,480.155853 829.232056,475.139435 
	C828.363403,472.326141 828.443481,469.219910 828.031555,465.360931 
M864.500000,494.006805 
	C879.952087,494.006805 895.404236,494.006805 911.097412,494.006805 
	C912.328125,486.519226 913.496887,479.408722 914.660461,472.329926 
	C909.650452,471.233704 906.131775,471.948730 902.867249,475.936768 
	C900.730469,478.547119 896.940857,480.814880 893.626038,481.260284 
	C883.878662,482.569946 873.998840,482.893707 862.842896,483.699371 
	C880.183350,451.754181 896.691467,421.342346 913.481323,390.411469 
	C885.863770,390.411469 859.123535,390.411469 831.946777,390.411469 
	C830.734680,397.613861 829.530029,404.772186 828.282898,412.183136 
	C832.610779,412.723541 836.171143,413.265503 839.380310,409.415710 
	C841.382263,407.014099 844.686340,404.876801 847.721558,404.309875 
	C857.238525,402.532257 866.905029,401.555389 876.513611,400.268311 
	C876.757446,400.831757 877.001343,401.395172 877.245239,401.958618 
	C860.644043,432.463348 844.042847,462.968079 827.151123,494.006775 
	C839.871826,494.006775 851.685913,494.006775 864.500000,494.006805 
M676.686523,487.450409 
	C676.686523,489.535370 676.686523,491.620331 676.686523,493.648071 
	C687.103149,493.648071 696.830444,493.648071 706.578613,493.648071 
	C706.578613,452.037537 706.578613,410.783447 706.578613,369.312927 
	C696.581665,369.312927 686.846924,369.312927 676.686401,369.312927 
	C676.686401,408.542084 676.686401,447.500061 676.686523,487.450409 
M508.685547,481.492889 
	C508.685547,485.577576 508.685547,489.662262 508.685547,493.632446 
	C519.134949,493.632446 528.860779,493.632446 538.565063,493.632446 
	C538.565063,452.007080 538.565063,410.753876 538.565063,369.324219 
	C528.552673,369.324219 518.816284,369.324219 508.685760,369.324219 
	C508.685760,406.569183 508.685760,443.531616 508.685547,481.492889 
M747.707458,485.427246 
	C747.707458,453.842804 747.707458,422.258362 747.707458,390.484772 
	C737.354736,390.484772 727.630737,390.484772 717.765259,390.484772 
	C717.765259,425.109863 717.765259,459.446045 717.765259,493.664551 
	C727.899292,493.664551 737.635315,493.664551 747.707397,493.664551 
	C747.707397,491.011841 747.707397,488.705536 747.707458,485.427246 
M512.515381,310.779297 
	C509.261353,310.433929 506.007294,310.088562 502.458679,309.711914 
	C502.458679,326.772278 502.458679,343.272339 502.458679,359.770447 
	C510.130035,359.770447 517.484131,359.770447 525.856445,359.770447 
	C525.215332,347.592072 524.930847,335.830902 523.845947,324.144012 
	C523.264832,317.883759 520.954956,312.033600 512.515381,310.779297 
M719.214111,358.853546 
	C715.143738,365.039978 714.835571,371.367432 719.071655,377.502411 
	C722.760376,382.844604 728.063538,385.355011 734.587280,384.466461 
	C742.018677,383.454315 747.604065,377.708649 748.707153,370.335236 
	C749.695129,363.730988 745.748474,356.632538 739.397400,353.590607 
	C732.540527,350.306396 725.748901,351.922119 719.214111,358.853546 
M523.494629,512.992615 
	C518.564575,512.992615 513.634583,512.992615 508.210327,512.992615 
	C508.210327,509.375366 508.210327,506.307831 508.210327,503.165466 
	C505.970856,503.165466 504.255615,503.165466 502.148987,503.165466 
	C502.148987,514.417908 502.144043,525.349731 502.157532,536.281555 
	C502.158722,537.238342 502.280823,538.194946 502.343384,539.103455 
	C524.554810,540.895386 536.608398,531.560425 535.841919,512.992737 
	C532.072205,512.992737 528.279663,512.992737 523.494629,512.992615 
M538.284485,237.096588 
	C544.668823,237.096588 551.053162,237.096588 557.437500,237.096588 
	C557.429932,236.595688 557.422363,236.094788 557.414795,235.593887 
	C523.765625,235.593887 490.116455,235.593887 456.467255,235.593887 
	C456.457458,235.961212 456.447662,236.328537 456.437836,236.695862 
	C483.401367,236.826263 510.364868,236.956665 538.284485,237.096588 
M362.998749,594.500000 
	C362.998749,601.927673 362.998749,609.355286 362.998749,617.373047 
	C402.198547,617.373047 440.837158,617.373047 479.475769,617.373047 
	C470.078461,615.737976 460.562042,616.069519 451.072601,616.011475 
	C441.415649,615.952393 431.758026,615.998596 422.100708,615.998596 
	C412.443359,615.998657 402.786041,615.998596 393.128693,615.998596 
	C383.546906,615.998596 373.965088,615.998535 364.168945,615.998535 
	C364.168945,604.855164 364.168945,594.385986 364.168915,583.916809 
	C364.168854,574.425964 364.212311,564.934692 364.113861,555.444824 
	C364.101532,554.253784 363.340973,553.070496 362.998749,552.089172 
	C362.998749,566.087341 362.998749,579.793640 362.998749,594.500000 
M815.803650,381.593933 
	C852.949585,381.593933 890.095520,381.593933 927.964661,381.593933 
	C926.721069,383.992310 925.984009,385.413879 925.246948,386.835449 
	C925.706177,387.027069 926.165405,387.218689 926.624634,387.410309 
	C927.594910,385.151245 928.565247,382.892151 929.827515,379.953217 
	C927.115173,379.953217 925.471008,379.917511 923.828796,379.958679 
	C904.847900,380.434418 885.869629,381.109161 866.885864,381.353180 
	C848.064941,381.595062 829.238464,381.406097 810.414368,381.406097 
	C810.414429,381.468628 810.414490,381.531158 810.414490,381.593689 
	C811.912720,381.593689 813.410889,381.593689 815.803650,381.593933 
M217.998398,434.634216 
	C217.954880,428.744080 215.223022,424.337616 210.428970,420.983429 
	C209.292938,422.958466 208.164856,424.919678 207.194092,426.607422 
	C210.651291,430.614777 213.902832,434.383759 217.714050,438.801453 
	C217.919830,437.229950 218.044601,436.277130 217.998398,434.634216 
M808.994812,433.501038 
	C808.994812,441.745880 808.994812,449.990723 808.994812,458.235596 
	C809.615967,458.207397 810.237122,458.179230 810.858337,458.151062 
	C810.573669,453.140472 810.114990,448.132385 810.042236,443.118713 
	C809.909241,433.947388 810.004456,424.772797 810.004456,415.599548 
	C809.261353,415.907501 809.030762,416.205078 809.029175,416.503876 
	C809.001282,421.836456 809.001160,427.169159 808.994812,433.501038 
M278.488098,513.999268 
	C283.070465,513.752258 287.863983,514.161560 292.088593,512.802429 
	C293.161316,512.457275 292.426453,506.487244 292.499237,503.101318 
	C292.500305,503.051422 292.203857,502.995117 291.203308,502.656738 
	C291.203308,506.042206 291.203308,509.284729 291.203308,513.060852 
	C279.786041,513.060852 269.199799,513.060852 258.613525,513.060852 
	C258.616455,513.373657 258.619415,513.686462 258.622345,513.999268 
	C264.912537,513.999268 271.202728,513.999268 278.488098,513.999268 
M429.517853,224.858902 
	C432.839020,226.032867 436.160187,227.206833 439.481354,228.380798 
	C439.639679,227.919968 439.797974,227.459137 439.956268,226.998291 
	C431.918976,224.094727 423.881653,221.191147 415.844330,218.287582 
	C415.697906,218.695267 415.551483,219.102966 415.405090,219.510651 
	C419.879791,221.175385 424.354523,222.840118 429.517853,224.858902 
M185.575287,192.915985 
	C189.483475,191.769302 193.391663,190.622620 197.530869,189.408157 
	C191.378754,188.531235 178.385483,192.723160 173.735382,197.224518 
	C177.745956,195.727951 181.274170,194.411362 185.575287,192.915985 
M306.967682,522.167908 
	C306.507904,525.939758 306.048096,529.711609 305.588318,533.483521 
	C307.586151,526.180054 308.644623,518.778259 309.494904,511.352600 
	C309.560730,510.777954 308.163452,510.035797 306.976685,508.936615 
	C306.976685,513.583191 306.976685,517.405823 306.967682,522.167908 
M360.670288,200.127548 
	C353.466064,198.618881 346.261841,197.110214 339.057648,195.601562 
	C341.575287,197.281845 344.280457,197.980698 346.990692,198.659317 
	C349.720123,199.342743 352.447083,200.038788 355.189087,200.668427 
	C357.609711,201.224274 360.049622,201.696243 362.481018,202.205261 
	C362.514008,201.848938 362.546997,201.492615 362.579987,201.136276 
	C362.112000,200.986252 361.644012,200.836212 360.670288,200.127548 
M637.740295,301.169250 
	C638.856934,305.053436 639.973572,308.937622 641.090149,312.821777 
	C641.590698,312.665924 642.091187,312.510040 642.591675,312.354156 
	C640.972656,306.870300 639.353638,301.386444 637.734619,295.902618 
	C637.180847,296.070679 636.627075,296.238739 636.073364,296.406799 
	C636.524170,297.759003 636.974976,299.111206 637.740295,301.169250 
M320.762421,191.182495 
	C314.896362,190.273788 309.030273,189.365067 303.164215,188.456360 
	C308.692108,190.570236 314.383301,191.614685 320.086884,192.586151 
	C320.410645,192.641296 320.836365,192.097961 320.762421,191.182495 
M469.858215,472.306793 
	C467.117615,473.379364 464.377014,474.451935 461.337006,475.641693 
	C466.334625,478.113770 469.774139,476.062225 473.559753,472.179474 
	C472.068054,472.106812 471.326508,472.070679 469.858215,472.306793 
M736.365723,695.035339 
	C738.439087,695.035339 740.512390,695.035339 742.585754,695.035339 
	C742.590088,694.610474 742.594482,694.185608 742.598816,693.760742 
	C734.598511,693.760742 726.598267,693.760742 718.598022,693.760742 
	C718.579041,694.018860 718.560120,694.276978 718.541138,694.535095 
	C724.161804,694.701843 729.782471,694.868591 736.365723,695.035339 
M923.080200,461.999725 
	C917.221436,461.999725 911.362671,461.999725 905.503906,461.999725 
	C905.516663,462.335846 905.529358,462.671997 905.542114,463.008118 
	C911.964722,463.008118 918.387390,463.008118 924.769592,463.008118 
	C924.864746,464.527283 924.935852,465.662750 925.041260,467.345764 
	C927.521851,463.556763 927.521851,463.556763 923.080200,461.999725 
M853.558105,514.001221 
	C858.835449,514.001221 864.112854,514.001221 869.390198,514.001221 
	C869.385010,513.706360 869.379822,513.411438 869.374573,513.116577 
	C861.797180,513.116577 854.219727,513.116577 846.668335,513.116577 
	C846.558655,511.919037 846.473022,510.984314 846.387451,510.049622 
	C846.052246,510.076691 845.717041,510.103790 845.381836,510.130890 
	C845.381836,511.366913 845.381836,512.602905 845.381836,514.001221 
	C847.968811,514.001221 850.277405,514.001221 853.558105,514.001221 
M826.542908,420.996826 
	C823.453857,420.996826 820.364807,420.996826 817.275757,420.996826 
	C817.282043,421.204437 817.288330,421.412018 817.294617,421.619629 
	C825.436340,421.619629 833.578125,421.619629 841.719910,421.619629 
	C841.718262,421.412018 841.716675,421.204437 841.715088,420.996826 
	C836.986145,420.996826 832.257263,420.996826 826.542908,420.996826 
z"/>
<path fill="#FD65C3" opacity="1.000000" stroke="none" 
	d="
M400.472656,585.721558 
	C400.472839,567.422424 400.366516,549.589722 400.592957,531.761230 
	C400.625336,529.212524 401.690094,526.234131 403.259979,524.221252 
	C411.962738,513.062500 412.004181,498.379364 403.008118,487.386993 
	C399.145721,482.667511 399.394653,475.313995 403.836121,470.558746 
	C414.539764,511.707916 442.811523,520.236023 480.542084,511.742950 
	C480.542084,528.080505 480.542084,544.347229 480.542084,562.076233 
	C495.545135,561.058960 510.274933,561.231934 524.556458,558.786865 
	C541.338623,555.913757 551.740295,544.553467 555.709167,528.010681 
	C560.533875,507.900269 560.196716,487.730560 554.841187,467.716248 
	C554.157166,465.160065 553.428406,462.391174 551.900635,460.327759 
	C547.409729,454.262360 547.310669,447.481995 547.358032,440.401367 
	C547.524292,415.571869 547.591431,390.739044 547.356506,365.910675 
	C547.226013,352.112000 546.957458,338.274628 545.800964,324.534668 
	C543.874023,301.640503 532.669006,290.334503 510.123047,288.421387 
	C500.550720,287.609131 490.852051,288.285828 480.529449,288.285828 
	C480.529449,303.706390 480.529449,319.115479 480.529449,334.524536 
	C480.529449,349.987274 480.529449,365.449982 480.529449,381.410065 
	C451.327362,376.554413 425.892670,381.007660 408.477417,407.819702 
	C406.034302,404.161499 403.627228,400.557281 401.116943,396.798523 
	C401.276093,396.496490 401.425018,396.026550 401.720215,395.681854 
	C406.392090,390.226135 407.547394,384.837311 403.329865,378.182709 
	C401.270355,374.933105 400.613403,370.327850 400.589203,366.328522 
	C400.384308,332.500153 400.472137,298.670044 400.472076,264.840454 
	C400.472076,263.040771 400.472076,261.241089 400.472076,258.997345 
	C402.553772,258.997345 404.176758,258.997314 405.799744,258.997345 
	C451.794678,258.997406 497.789642,259.029114 543.784546,258.980774 
	C560.447266,258.963257 576.372742,261.895233 590.322388,271.476440 
	C607.004700,282.934601 616.175659,299.395111 619.804138,318.993469 
	C622.301636,332.483063 623.024597,346.074768 619.536377,360.081360 
	C604.215271,360.081360 588.791626,360.081360 573.042664,360.081360 
	C573.042664,407.795868 573.042664,455.022156 573.042664,502.658020 
	C576.881531,502.658020 580.649231,502.658020 584.838257,502.658020 
	C584.838257,506.133026 584.838257,509.219452 584.838257,512.798096 
	C602.654724,512.798096 620.059631,512.798096 638.456421,512.798096 
	C637.149414,518.537415 636.354187,523.730286 634.777466,528.673889 
	C625.428467,557.986023 607.634338,579.271790 576.922180,587.376953 
	C569.279175,589.393921 561.141357,590.340759 553.223755,590.381653 
	C502.566681,590.643494 451.907562,590.515198 400.758514,590.515198 
	C400.659668,589.019043 400.566193,587.604187 400.472656,585.721558 
z"/>
<path fill="#5270FE" opacity="1.000000" stroke="none" 
	d="
M320.438873,391.380981 
	C316.866119,394.172607 313.568390,396.734772 310.270660,399.296967 
	C310.638397,399.833252 311.006165,400.369568 311.373901,400.905853 
	C309.787476,398.330933 308.431091,395.575043 306.573669,393.213257 
	C299.573090,384.311646 289.664764,381.056244 278.967194,380.161682 
	C259.430573,378.527985 241.745773,383.483459 226.238205,395.844666 
	C223.635162,397.919556 222.610519,399.734589 223.620956,402.930115 
	C224.188263,404.724213 224.085190,406.730347 224.427277,410.015289 
	C219.453354,404.614258 214.969193,401.234253 214.510895,394.046112 
	C213.433182,377.142975 203.227798,365.603851 187.191727,361.101379 
	C185.603027,360.655334 183.800873,359.605530 182.896866,358.287750 
	C167.351395,335.627441 154.402649,311.685333 148.521927,284.560242 
	C144.408005,265.584564 144.774368,247.097229 157.221161,230.722305 
	C166.520035,218.488770 179.598572,212.101364 193.848053,207.855743 
	C219.157318,200.314850 245.075226,199.855164 271.087982,202.313248 
	C318.078918,206.753677 363.415405,218.394424 407.670654,234.525650 
	C409.033875,235.022552 410.352295,235.642487 411.612671,236.879761 
	C395.963165,236.879761 380.313660,236.879761 364.188782,236.879761 
	C364.188782,284.910278 364.188782,332.473083 364.188782,380.270630 
	C348.420227,380.052826 333.477692,381.390198 320.438873,391.380981 
M222.363800,317.058258 
	C226.748688,295.356689 244.042618,290.957245 263.554260,287.792023 
	C251.405655,284.515869 239.916504,283.620972 231.427841,275.462433 
	C222.938797,267.303528 222.226959,255.731293 218.427277,244.703400 
	C216.675491,271.685028 201.929733,285.254150 175.193817,287.516266 
	C202.209412,289.776184 216.650970,303.719543 217.914551,330.901520 
	C218.357956,330.667145 218.801346,330.432770 219.244736,330.198425 
	C220.208282,326.078156 221.171814,321.957916 222.363800,317.058258 
M336.238190,283.170471 
	C322.660187,282.008942 315.247192,274.416626 313.605438,260.539551 
	C312.070007,274.850250 304.413330,282.082367 290.216156,283.832550 
	C304.851257,284.982361 312.028595,293.100922 313.226288,307.754242 
	C313.869629,306.250916 314.115692,305.814240 314.245270,305.345398 
	C314.553619,304.230042 314.862701,303.109802 315.073578,301.973389 
	C316.860596,292.344299 322.648560,286.825165 332.219574,285.051971 
	C333.790985,284.760864 335.272797,283.986084 336.238190,283.170471 
z"/>
<path fill="#5270FE" opacity="1.000000" stroke="none" 
	d="
M667.152222,506.040161 
	C669.682068,502.562439 673.001160,502.694397 676.386169,502.815948 
	C679.508911,502.928009 682.638916,502.839752 686.035583,502.839752 
	C686.197205,506.391357 686.337463,509.473389 686.487183,512.762451 
	C697.046143,512.762451 707.305786,512.762451 718.091431,512.762451 
	C718.091431,509.621948 718.091431,506.550568 718.091431,503.167664 
	C722.152771,503.167664 725.691895,503.167664 729.578491,503.167664 
	C729.578491,506.375671 729.578491,509.332825 729.578491,512.644409 
	C740.304810,512.644409 750.691956,512.644409 761.573975,512.644409 
	C761.573975,504.861603 761.573975,497.118896 761.573975,489.698364 
	C771.923706,495.873260 782.037720,501.906036 792.149292,507.942993 
	C793.006653,508.454895 793.790710,509.309448 794.704346,509.473846 
	C805.512695,511.418549 810.106628,520.141663 815.185608,528.247864 
	C828.243591,549.088501 839.484375,570.777527 844.425598,595.135498 
	C848.183777,613.661560 847.568237,631.651855 835.768860,647.656128 
	C826.514648,660.208130 813.238342,666.685791 798.828247,670.938477 
	C773.855225,678.308533 748.274292,678.789795 722.567078,676.466736 
	C656.986755,670.540771 595.388977,650.159485 535.223877,624.633057 
	C530.780945,622.748047 526.370483,620.785706 521.958496,618.828796 
	C520.597534,618.225098 519.281677,617.519958 517.910889,615.998169 
	C519.908142,615.998169 521.909729,615.911316 523.901855,616.011597 
	C544.412231,617.043640 564.311584,613.837341 583.986511,608.138550 
	C615.761047,598.935181 637.677490,578.726257 650.330994,548.629578 
	C654.473145,538.777344 656.819946,528.061096 658.988953,517.534241 
	C660.085205,512.213684 661.786011,508.341217 667.152222,506.040161 
M805.778381,585.910217 
	C791.135315,578.417603 790.166138,563.545471 786.422119,549.427368 
	C783.341919,560.712524 782.468567,572.224426 774.216797,580.698242 
	C766.070129,589.064209 754.536987,589.695007 743.051758,593.139160 
	C754.867676,596.335083 766.237366,597.195618 774.401184,605.639038 
	C782.490173,614.004883 783.333618,625.435608 786.460388,636.774048 
	C789.370850,625.237915 790.422913,613.949524 798.479736,605.569763 
	C806.624939,597.098145 818.192139,596.393188 829.149658,593.255188 
	C821.182983,590.771790 813.829346,588.479492 805.778381,585.910217 
M716.250793,609.539673 
	C706.187073,606.514771 705.180115,597.305603 702.324280,588.924011 
	C701.729126,603.506104 693.446655,610.495117 679.537048,612.476868 
	C693.757080,614.026550 701.149170,621.560852 702.803284,635.830017 
	C704.082886,621.372742 711.998291,613.987122 725.603027,612.151611 
	C722.725952,611.375427 719.848816,610.599304 716.250793,609.539673 
z"/>
<path fill="#ECBB0A" opacity="1.000000" stroke="none" 
	d="
M337.307434,480.830627 
	C338.741791,480.212616 339.967194,479.955536 341.290192,479.678009 
	C337.075592,477.843872 332.800476,476.430939 328.979584,474.229645 
	C320.400085,469.286804 315.535736,461.381287 313.431396,451.953949 
	C310.744873,439.918823 310.793701,427.735138 314.369263,415.897949 
	C318.083374,403.601959 326.234039,394.758148 338.825775,391.869507 
	C347.618011,389.852539 356.952240,389.196777 365.989349,389.511719 
	C376.374451,389.873657 382.213257,386.649963 385.030762,376.365204 
	C385.161224,375.889069 385.277191,375.409027 385.394226,374.952850 
	C391.813354,373.664764 393.486206,375.124329 396.566650,384.643555 
	C397.794647,388.438263 394.356689,392.042328 386.281708,395.425507 
	C404.390839,412.850067 409.716095,435.373596 401.002228,456.901978 
	C396.172943,468.833191 387.161407,475.655670 375.076538,478.957214 
	C373.660522,479.344055 372.232544,479.686951 370.928680,480.019928 
	C376.730652,482.231506 382.809601,483.783630 388.127075,486.716461 
	C405.275635,496.174591 405.385925,515.458557 388.403015,525.106323 
	C373.147400,533.772827 356.734680,533.647095 340.441742,529.198303 
	C333.740662,527.368652 327.564453,523.343079 321.466003,519.775391 
	C319.969482,518.899841 318.977600,515.884644 319.023529,513.882202 
	C319.179443,507.088074 319.904236,500.306946 320.404541,493.616425 
	C327.749390,492.154907 327.749390,492.154907 329.947144,498.393280 
	C334.535126,511.416412 345.056122,520.092346 356.334290,520.152954 
	C364.114136,520.194702 369.890015,515.949280 371.045288,509.339966 
	C372.403137,501.572052 369.244934,495.201752 361.268524,493.173676 
	C353.656921,491.238403 345.599609,491.056213 337.098480,490.025818 
	C337.098480,487.718292 337.098480,484.454926 337.307434,480.830627 
M347.957214,466.461273 
	C355.372162,474.157471 363.870911,473.176758 369.122986,463.956970 
	C370.102600,462.237335 371.035278,460.411957 371.544434,458.515869 
	C375.728729,442.933807 375.865906,427.279816 371.317139,411.795776 
	C368.636475,402.670929 363.189728,397.888397 357.357544,398.317566 
	C350.919250,398.791382 345.321167,403.887329 344.223328,413.150604 
	C342.806091,425.108765 342.435089,437.276154 342.780060,449.320038 
	C342.938934,454.867096 345.869293,460.334778 347.957214,466.461273 
z"/>
<path fill="#ECBB0A" opacity="1.000000" stroke="none" 
	d="
M661.611633,435.319672 
	C671.298035,444.909637 673.924438,460.540894 668.366760,474.046997 
	C663.010376,487.064270 652.815308,493.935516 638.463440,493.987274 
	C619.648193,494.055145 600.832520,494.003906 581.636169,494.003906 
	C581.636169,452.420563 581.636169,411.060364 581.636169,369.039185 
	C583.734802,369.039185 585.830688,369.039154 587.926636,369.039185 
	C603.418030,369.039551 618.909790,368.975861 634.400696,369.058807 
	C649.075256,369.137390 658.320923,375.041718 662.653931,386.875549 
	C667.413574,399.874756 663.736938,417.939240 654.634338,425.903931 
	C653.152832,427.200317 651.412964,428.201355 649.705627,429.399902 
	C653.607910,431.313080 657.466919,433.205017 661.611633,435.319672 
M623.218811,435.943390 
	C619.446167,435.943390 615.673523,435.943390 611.665771,435.943390 
	C611.665771,451.767700 611.665771,467.146820 611.665771,483.290009 
	C616.996338,482.947693 622.105042,482.937195 627.113281,482.222443 
	C634.353210,481.189240 638.959229,476.576202 639.895813,469.518250 
	C640.712708,463.362579 640.842163,456.926605 640.012512,450.785095 
	C638.718018,441.202393 633.752197,437.104401 623.218811,435.943390 
M618.448181,380.006775 
	C616.202759,380.006775 613.957336,380.006775 611.713196,380.006775 
	C611.713196,395.332001 611.713196,409.910461 611.713196,424.846222 
	C615.459290,424.846222 618.928528,425.018463 622.374939,424.810730 
	C629.772461,424.364868 633.994568,421.289978 635.304626,414.001587 
	C636.378906,408.024811 636.776733,401.742462 636.253174,395.701416 
	C635.225342,383.842316 631.189331,380.481110 618.448181,380.006775 
z"/>
<path fill="#EEBC0A" opacity="1.000000" stroke="none" 
	d="
M130.069153,494.002136 
	C127.594429,494.002167 125.611305,494.002167 123.272034,494.002167 
	C123.272034,452.420166 123.272034,411.054352 123.272034,369.042175 
	C125.116295,369.042175 127.048119,369.042053 128.979935,369.042206 
	C144.802643,369.043427 160.626221,368.943329 176.447830,369.075989 
	C190.868042,369.196899 199.721436,375.039490 204.105087,386.948303 
	C208.846588,399.829224 205.099564,418.271576 196.109055,425.951111 
	C194.619156,427.223755 192.886124,428.211761 191.089127,429.453125 
	C191.493942,429.823669 191.766113,430.293152 192.117447,430.362701 
	C209.316071,433.766113 213.340942,449.165894 212.582809,461.367523 
	C211.278290,482.362366 198.476517,493.991028 177.528885,494.000702 
	C161.872833,494.007935 146.216782,494.002136 130.069153,494.002136 
M169.334442,482.104950 
	C175.904770,480.746155 179.821976,476.579895 181.340012,470.234344 
	C183.188812,462.506165 183.102692,454.718933 180.750763,447.101257 
	C178.801346,440.787323 174.233276,437.005707 167.782227,436.242462 
	C163.074600,435.685486 158.248093,436.133484 153.334457,436.133484 
	C153.334457,451.806793 153.334457,467.307220 153.334457,483.323547 
	C158.637375,482.964539 163.575119,482.630249 169.334442,482.104950 
M174.842163,419.176971 
	C179.493347,409.321289 179.157028,399.046600 176.310944,388.986053 
	C175.458374,385.972382 172.099701,382.467560 169.141464,381.518616 
	C164.151520,379.917847 158.564697,380.177795 153.294724,379.661682 
	C153.294724,395.364471 153.294724,409.954834 153.294724,425.001923 
	C160.836563,424.311798 168.729401,426.918091 174.842163,419.176971 
z"/>
<path fill="#EAB90A" opacity="1.000000" stroke="none" 
	d="
M268.405334,422.391632 
	C272.278137,421.636108 273.923645,419.813446 273.376740,416.061310 
	C273.019196,413.608368 273.312103,411.067017 273.060089,408.591064 
	C272.401123,402.116241 268.272675,399.184967 261.919708,400.946411 
	C254.181778,403.091827 249.308563,408.662018 245.704742,415.501648 
	C242.643707,421.311096 242.682541,421.331573 235.082916,420.812439 
	C234.257919,415.251343 233.308472,409.572754 232.671295,403.859314 
	C232.562698,402.885559 233.532562,401.380219 234.440811,400.765350 
	C250.803329,389.688049 268.502625,385.182068 287.909637,390.841492 
	C297.473267,393.630371 303.416260,400.114227 303.497772,410.378876 
	C303.717010,437.993561 303.572662,465.611115 303.572662,493.617920 
	C293.522003,493.617920 283.676453,493.617920 273.529663,493.617920 
	C273.398529,491.452911 273.271240,489.351227 273.111023,486.705566 
	C271.879547,487.556641 270.952972,488.111908 270.121338,488.784515 
	C259.148041,497.659607 241.695984,498.280273 229.960373,490.362671 
	C221.149323,484.418182 218.521362,475.576111 218.353561,465.729065 
	C218.055618,448.245758 225.553284,437.050049 241.952286,430.907349 
	C250.489624,427.709473 259.329681,425.319763 268.405334,422.391632 
M273.328766,434.669739 
	C273.328766,432.791748 273.328766,430.913727 273.328766,428.387726 
	C270.584625,429.680511 268.845856,430.593170 267.037598,431.337006 
	C249.585648,438.515747 245.917664,452.478607 250.098557,473.609863 
	C251.390076,480.137512 256.290710,482.901978 261.774689,481.913635 
	C268.023834,480.787384 273.315887,475.157104 273.323975,469.566223 
	C273.340393,458.253113 273.328705,446.939911 273.328766,434.669739 
z"/>
<path fill="#ECBA0A" opacity="1.000000" stroke="none" 
	d="
M480.213989,478.240723 
	C483.366272,473.747650 487.101532,469.847076 488.959290,465.196564 
	C491.219025,459.539825 494.429626,457.881317 500.447632,459.656097 
	C501.261536,465.206085 502.874847,471.114166 502.656189,476.953674 
	C502.553284,479.702515 499.439209,483.056091 496.815033,484.871429 
	C484.016266,493.725372 469.616180,497.176422 454.188141,495.495392 
	C424.044220,492.210938 408.725800,469.258514 409.577087,438.283203 
	C410.572510,402.063965 438.379395,385.704559 467.491394,388.755920 
	C474.323883,389.472076 481.476135,390.853851 487.613831,393.760864 
	C503.710693,401.384888 507.921661,419.218750 497.966339,435.373016 
	C488.930634,450.035004 474.581635,456.566010 458.467102,459.882416 
	C453.447479,460.915466 448.237762,461.025085 442.429016,461.628754 
	C444.774811,470.900391 448.520172,479.283722 457.628571,483.593536 
	C466.062347,487.584106 473.476471,484.427704 480.213989,478.240723 
M472.020294,437.395203 
	C476.942078,428.770874 478.248352,419.583588 475.949829,409.969757 
	C473.308044,398.920502 462.659180,394.826294 453.594696,401.373566 
	C451.614441,402.803925 449.818604,404.698883 448.442657,406.723022 
	C438.839081,420.851257 439.251007,436.705231 440.305206,453.129089 
	C453.403198,452.736237 464.170197,448.856567 472.020294,437.395203 
z"/>
<path fill="#EAB90A" opacity="1.000000" stroke="none" 
	d="
M828.063843,465.803284 
	C828.443481,469.219910 828.363403,472.326141 829.232056,475.139435 
	C830.780884,480.155853 828.437439,483.304474 825.098022,486.421844 
	C809.089966,501.365417 778.749451,497.863739 766.844299,479.660553 
	C763.332642,474.291138 762.365540,468.322784 762.375610,462.060272 
	C762.405151,443.744446 762.385681,425.428558 762.385437,407.112671 
	C762.385437,405.321106 762.385498,403.529572 762.385498,401.521790 
	C759.453613,401.295807 757.035217,401.109436 754.394287,400.905884 
	C754.394287,397.426453 754.394287,394.167999 754.394287,390.915314 
	C771.030457,389.906342 773.169983,375.494598 779.002686,364.569275 
	C779.759521,363.151703 779.943848,361.428558 780.390808,359.855896 
	C784.308228,359.855896 788.095154,359.855896 792.538574,359.855896 
	C792.538574,369.924652 792.538574,379.808685 792.538574,390.143738 
	C800.598389,390.143738 808.014526,390.143738 815.715698,390.143738 
	C815.715698,393.990417 815.715698,397.372864 815.715698,401.222595 
	C808.119019,401.222595 800.702209,401.222595 793.682678,401.222595 
	C793.202698,401.808441 793.013977,401.931213 793.014282,402.053589 
	C793.063660,424.680542 793.072510,447.307892 793.266785,469.933655 
	C793.287659,472.354126 793.842957,475.120911 795.123169,477.096588 
	C796.992126,479.980743 799.510620,484.008942 802.182556,484.370636 
	C804.890503,484.737213 809.268433,481.936279 810.879028,479.285645 
	C814.004944,474.141174 815.750732,468.148041 817.961365,462.464874 
	C818.491211,461.102661 818.601196,459.577179 818.960571,457.857483 
	C821.522217,457.857483 823.943359,457.857483 826.964783,457.857483 
	C827.303955,460.243011 827.667725,462.801971 828.063843,465.803284 
z"/>
<path fill="#EBBA0A" opacity="1.000000" stroke="none" 
	d="
M864.000000,494.006775 
	C851.685913,494.006775 839.871826,494.006775 827.151123,494.006775 
	C844.042847,462.968079 860.644043,432.463348 877.245239,401.958618 
	C877.001343,401.395172 876.757446,400.831757 876.513611,400.268311 
	C866.905029,401.555389 857.238525,402.532257 847.721558,404.309875 
	C844.686340,404.876801 841.382263,407.014099 839.380310,409.415710 
	C836.171143,413.265503 832.610779,412.723541 828.282898,412.183136 
	C829.530029,404.772186 830.734680,397.613861 831.946777,390.411469 
	C859.123535,390.411469 885.863770,390.411469 913.481323,390.411469 
	C896.691467,421.342346 880.183350,451.754181 862.842896,483.699371 
	C873.998840,482.893707 883.878662,482.569946 893.626038,481.260284 
	C896.940857,480.814880 900.730469,478.547119 902.867249,475.936768 
	C906.131775,471.948730 909.650452,471.233704 914.660461,472.329926 
	C913.496887,479.408722 912.328125,486.519226 911.097412,494.006805 
	C895.404236,494.006805 879.952087,494.006805 864.000000,494.006775 
z"/>
<path fill="#EDBB0A" opacity="1.000000" stroke="none" 
	d="
M676.686462,486.954224 
	C676.686401,447.500061 676.686401,408.542084 676.686401,369.312927 
	C686.846924,369.312927 696.581665,369.312927 706.578613,369.312927 
	C706.578613,410.783447 706.578613,452.037537 706.578613,493.648071 
	C696.830444,493.648071 687.103149,493.648071 676.686523,493.648071 
	C676.686523,491.620331 676.686523,489.535370 676.686462,486.954224 
z"/>
<path fill="#EDBB0A" opacity="1.000000" stroke="none" 
	d="
M508.685669,480.993469 
	C508.685760,443.531616 508.685760,406.569183 508.685760,369.324219 
	C518.816284,369.324219 528.552673,369.324219 538.565063,369.324219 
	C538.565063,410.753876 538.565063,452.007080 538.565063,493.632446 
	C528.860779,493.632446 519.134949,493.632446 508.685547,493.632446 
	C508.685547,489.662262 508.685547,485.577576 508.685669,480.993469 
z"/>
<path fill="#E8B70A" opacity="1.000000" stroke="none" 
	d="
M747.707397,485.913269 
	C747.707397,488.705536 747.707397,491.011841 747.707397,493.664551 
	C737.635315,493.664551 727.899292,493.664551 717.765259,493.664551 
	C717.765259,459.446045 717.765259,425.109863 717.765259,390.484772 
	C727.630737,390.484772 737.354736,390.484772 747.707458,390.484772 
	C747.707458,422.258362 747.707458,453.842804 747.707397,485.913269 
z"/>
<path fill="#526FFB" opacity="1.000000" stroke="none" 
	d="
M512.925415,310.837769 
	C520.954956,312.033600 523.264832,317.883759 523.845947,324.144012 
	C524.930847,335.830902 525.215332,347.592072 525.856445,359.770447 
	C517.484131,359.770447 510.130035,359.770447 502.458679,359.770447 
	C502.458679,343.272339 502.458679,326.772278 502.458679,309.711914 
	C506.007294,310.088562 509.261353,310.433929 512.925415,310.837769 
z"/>
<path fill="#EBBA0A" opacity="1.000000" stroke="none" 
	d="
M719.446350,358.567657 
	C725.748901,351.922119 732.540527,350.306396 739.397400,353.590607 
	C745.748474,356.632538 749.695129,363.730988 748.707153,370.335236 
	C747.604065,377.708649 742.018677,383.454315 734.587280,384.466461 
	C728.063538,385.355011 722.760376,382.844604 719.071655,377.502411 
	C714.835571,371.367432 715.143738,365.039978 719.446350,358.567657 
z"/>
<path fill="#526FFB" opacity="1.000000" stroke="none" 
	d="
M523.990906,512.992676 
	C528.279663,512.992737 532.072205,512.992737 535.841919,512.992737 
	C536.608398,531.560425 524.554810,540.895386 502.343384,539.103455 
	C502.280823,538.194946 502.158722,537.238342 502.157532,536.281555 
	C502.144043,525.349731 502.148987,514.417908 502.148987,503.165466 
	C504.255615,503.165466 505.970856,503.165466 508.210327,503.165466 
	C508.210327,506.307831 508.210327,509.375366 508.210327,512.992615 
	C513.634583,512.992615 518.564575,512.992615 523.990906,512.992676 
z"/>
<path fill="#EEEFF4" opacity="1.000000" stroke="none" 
	d="
M860.031494,637.088745 
	C867.706787,608.102234 860.396973,581.070618 848.487427,554.967773 
	C842.722656,542.332886 835.232239,530.485474 828.528687,518.278442 
	C827.872437,517.083374 827.256226,515.866272 826.894897,514.457581 
	C829.587830,517.858887 832.688110,521.018555 834.882324,524.715820 
	C838.564636,530.920654 841.824829,537.392639 844.978027,543.890381 
	C848.739990,551.642456 852.530640,559.410950 855.676819,567.420654 
	C857.711731,572.601379 857.996826,578.487183 860.151611,583.599548 
	C864.653381,594.280396 864.809204,605.543762 864.763184,616.641907 
	C864.732483,624.037964 862.181213,631.423523 860.408203,638.612671 
	C860.049316,637.970581 860.040405,637.529663 860.031494,637.088745 
z"/>
<path fill="#FFFFFF" opacity="1.000000" stroke="none" 
	d="
M99.497772,381.228149 
	C99.423820,395.718719 99.303719,410.209229 99.285828,424.699860 
	C99.251869,452.195953 99.276459,479.692078 99.276733,507.188202 
	C99.276749,508.978607 99.276733,510.769012 99.276733,512.988770 
	C120.302177,512.988770 140.883270,512.988770 161.464371,512.988770 
	C161.463150,513.229797 161.461945,513.470886 161.460739,513.711914 
	C140.461716,513.711914 119.462692,513.711914 98.128258,513.711914 
	C98.085014,512.903442 98.006470,512.119202 98.006363,511.334930 
	C98.000381,468.507660 98.000107,425.680359 98.007538,382.853088 
	C98.007683,382.024048 98.106476,381.194977 98.769302,380.464691 
	C99.418831,380.785004 99.458298,381.006561 99.497772,381.228149 
z"/>
<path fill="#E4E4E4" opacity="1.000000" stroke="none" 
	d="
M537.806396,237.091827 
	C510.364868,236.956665 483.401367,236.826263 456.437836,236.695862 
	C456.447662,236.328537 456.457458,235.961212 456.467255,235.593887 
	C490.116455,235.593887 523.765625,235.593887 557.414795,235.593887 
	C557.422363,236.094788 557.429932,236.595688 557.437500,237.096588 
	C551.053162,237.096588 544.668823,237.096588 537.806396,237.091827 
z"/>
<path fill="#FEFEFE" opacity="1.000000" stroke="none" 
	d="
M362.998749,594.000000 
	C362.998749,579.793640 362.998749,566.087341 362.998749,552.089172 
	C363.340973,553.070496 364.101532,554.253784 364.113861,555.444824 
	C364.212311,564.934692 364.168854,574.425964 364.168915,583.916809 
	C364.168945,594.385986 364.168945,604.855164 364.168945,615.998535 
	C373.965088,615.998535 383.546906,615.998596 393.128693,615.998596 
	C402.786041,615.998596 412.443359,615.998657 422.100708,615.998596 
	C431.758026,615.998596 441.415649,615.952393 451.072601,616.011475 
	C460.562042,616.069519 470.078461,615.737976 479.475769,617.373047 
	C440.837158,617.373047 402.198547,617.373047 362.998749,617.373047 
	C362.998749,609.355286 362.998749,601.927673 362.998749,594.000000 
z"/>
<path fill="#E7E7E7" opacity="1.000000" stroke="none" 
	d="
M815.356384,381.593811 
	C813.410889,381.593689 811.912720,381.593689 810.414490,381.593689 
	C810.414490,381.531158 810.414429,381.468628 810.414368,381.406097 
	C829.238464,381.406097 848.064941,381.595062 866.885864,381.353180 
	C885.869629,381.109161 904.847900,380.434418 923.828796,379.958679 
	C925.471008,379.917511 927.115173,379.953217 929.827515,379.953217 
	C928.565247,382.892151 927.594910,385.151245 926.624634,387.410309 
	C926.165405,387.218689 925.706177,387.027069 925.246948,386.835449 
	C925.984009,385.413879 926.721069,383.992310 927.964661,381.593933 
	C890.095520,381.593933 852.949585,381.593933 815.356384,381.593811 
z"/>
<path fill="#EAEBF1" opacity="1.000000" stroke="none" 
	d="
M138.984604,314.040894 
	C136.990982,309.125153 134.764267,304.289276 133.048203,299.278473 
	C128.228134,285.204224 127.187187,270.616089 128.057236,255.896149 
	C128.332230,251.243607 129.694916,246.655334 131.490280,242.101028 
	C126.276794,266.161133 130.492599,289.044250 138.917328,312.165863 
	C138.946411,313.250305 138.965515,313.645599 138.984604,314.040894 
z"/>
<path fill="#F4F4F4" opacity="1.000000" stroke="none" 
	d="
M218.083893,434.979248 
	C218.044601,436.277130 217.919830,437.229950 217.714050,438.801453 
	C213.902832,434.383759 210.651291,430.614777 207.194092,426.607422 
	C208.164856,424.919678 209.292938,422.958466 210.428970,420.983429 
	C215.223022,424.337616 217.954880,428.744080 218.083893,434.979248 
z"/>
<path fill="#FFFFFF" opacity="1.000000" stroke="none" 
	d="
M111.871674,379.928345 
	C111.914757,374.274139 111.762848,368.606873 112.139954,362.975037 
	C112.232605,361.591431 114.032486,359.190674 115.080048,359.172882 
	C129.848053,358.921936 144.621689,359.002319 159.409515,359.863892 
	C144.546631,359.863892 129.683746,359.863892 114.068039,359.863892 
	C114.068039,365.415070 114.149788,370.494659 114.021881,375.568939 
	C113.979469,377.251404 113.397820,378.920227 112.659927,380.408447 
	C112.257141,380.221619 111.871681,379.928345 111.871674,379.928345 
z"/>
<path fill="#F4F4F4" opacity="1.000000" stroke="none" 
	d="
M930.001587,489.001282 
	C933.092224,488.509796 936.182800,488.018311 940.122620,487.391815 
	C939.694275,491.298645 939.414673,494.425995 938.995300,497.534485 
	C938.389709,502.023224 937.890625,506.545776 936.884094,510.948303 
	C936.606018,512.164795 934.722534,513.835083 933.518616,513.883667 
	C926.576965,514.163940 919.618286,514.020325 912.642029,513.218262 
	C919.868713,513.218262 927.095398,513.218262 934.715393,513.218262 
	C936.031433,505.251160 937.282898,497.675018 938.646179,489.421906 
	C935.600403,489.421906 933.154907,489.421906 930.334595,489.201019 
	C929.959717,488.980133 930.001587,489.001282 930.001587,489.001282 
z"/>
<path fill="#D5D5D5" opacity="1.000000" stroke="none" 
	d="
M925.797302,494.449707 
	C923.882751,495.929535 921.968201,497.409363 918.902039,499.779297 
	C920.790405,488.359680 922.435303,478.412323 924.080261,468.464935 
	C924.546448,468.529694 925.012573,468.594482 925.478760,468.659241 
	C924.147278,477.484589 922.815796,486.309937 921.450012,495.362518 
	C922.260193,494.931152 923.210754,494.425018 924.735840,494.051636 
	C925.472595,494.272827 925.634949,494.361267 925.797302,494.449707 
z"/>
<path fill="#E2E3EC" opacity="1.000000" stroke="none" 
	d="
M859.855957,637.389832 
	C860.040405,637.529663 860.049316,637.970581 860.041260,638.742126 
	C858.690491,648.248901 852.698669,654.904053 847.537231,661.986694 
	C846.010681,664.081360 844.128174,665.916626 841.824951,667.348999 
	C849.518921,658.420532 855.595520,648.665771 859.855957,637.389832 
z"/>
<path fill="#FEFEFE" opacity="1.000000" stroke="none" 
	d="
M800.853821,351.096985 
	C791.129272,351.096985 781.404785,351.096985 772.230164,351.096985 
	C771.276306,356.063782 770.390869,360.674744 769.177979,365.104187 
	C768.850525,364.922699 768.931335,364.973236 768.931396,364.973236 
	C769.440308,360.135406 769.949280,355.297546 770.492554,350.133179 
	C780.753113,350.133179 791.173340,350.133179 801.477600,350.572449 
	C801.192383,351.040131 801.023132,351.068542 800.853821,351.096985 
z"/>
<path fill="#D5D5D5" opacity="1.000000" stroke="none" 
	d="
M808.994934,433.001465 
	C809.001160,427.169159 809.001282,421.836456 809.029175,416.503876 
	C809.030762,416.205078 809.261353,415.907501 810.004456,415.599548 
	C810.004456,424.772797 809.909241,433.947388 810.042236,443.118713 
	C810.114990,448.132385 810.573669,453.140472 810.858337,458.151062 
	C810.237122,458.179230 809.615967,458.207397 808.994812,458.235596 
	C808.994812,449.990723 808.994812,441.745880 808.994934,433.001465 
z"/>
<path fill="#FFFFFF" opacity="1.000000" stroke="none" 
	d="
M277.990509,513.999268 
	C271.202728,513.999268 264.912537,513.999268 258.622345,513.999268 
	C258.619415,513.686462 258.616455,513.373657 258.613525,513.060852 
	C269.199799,513.060852 279.786041,513.060852 291.203308,513.060852 
	C291.203308,509.284729 291.203308,506.042206 291.203308,502.656738 
	C292.203857,502.995117 292.500305,503.051422 292.499237,503.101318 
	C292.426453,506.487244 293.161316,512.457275 292.088593,512.802429 
	C287.863983,514.161560 283.070465,513.752258 277.990509,513.999268 
z"/>
<path fill="#BEBDBD" opacity="1.000000" stroke="none" 
	d="
M261.031067,184.897385 
	C246.495071,184.897385 231.959091,184.897385 217.423096,184.897385 
	C217.400604,184.816162 217.378128,184.734955 217.355637,184.653732 
	C222.551849,184.410919 227.748047,184.168121 233.877045,183.965271 
	C243.264969,183.990173 251.720078,183.975113 260.175201,183.960037 
	C260.175201,183.960037 260.617706,183.941696 260.778809,184.220947 
	C260.939911,184.500214 261.031067,184.897385 261.031067,184.897385 
z"/>
<path fill="#EAEBF1" opacity="1.000000" stroke="none" 
	d="
M429.173523,224.681870 
	C424.354523,222.840118 419.879791,221.175385 415.405090,219.510651 
	C415.551483,219.102966 415.697906,218.695267 415.844330,218.287582 
	C423.881653,221.191147 431.918976,224.094727 439.956268,226.998291 
	C439.797974,227.459137 439.639679,227.919968 439.481354,228.380798 
	C436.160187,227.206833 432.839020,226.032867 429.173523,224.681870 
z"/>
<path fill="#FEFEFE" opacity="1.000000" stroke="none" 
	d="
M671.004395,358.007141 
	C682.168884,358.337494 693.332458,358.787048 704.498718,358.868103 
	C706.150635,358.880066 707.815186,357.150482 710.251587,356.661804 
	C709.251160,357.819031 708.247620,359.983154 707.250793,359.980042 
	C695.397949,359.943329 683.546082,359.583801 671.402344,358.837311 
	C671.110657,358.365692 671.004395,358.007141 671.004395,358.007141 
z"/>
<path fill="#E2E3EC" opacity="1.000000" stroke="none" 
	d="
M185.188843,193.005386 
	C181.274170,194.411362 177.745956,195.727951 173.735382,197.224518 
	C178.385483,192.723160 191.378754,188.531235 197.530869,189.408157 
	C193.391663,190.622620 189.483475,191.769302 185.188843,193.005386 
z"/>
<path fill="#E7E7E7" opacity="1.000000" stroke="none" 
	d="
M306.972168,521.698120 
	C306.976685,517.405823 306.976685,513.583191 306.976685,508.936615 
	C308.163452,510.035797 309.560730,510.777954 309.494904,511.352600 
	C308.644623,518.778259 307.586151,526.180054 305.588318,533.483521 
	C306.048096,529.711609 306.507904,525.939758 306.972168,521.698120 
z"/>
<path fill="#EEEFF4" opacity="1.000000" stroke="none" 
	d="
M360.923157,200.406860 
	C361.644012,200.836212 362.112000,200.986252 362.579987,201.136276 
	C362.546997,201.492615 362.514008,201.848938 362.481018,202.205261 
	C360.049622,201.696243 357.609711,201.224274 355.189087,200.668427 
	C352.447083,200.038788 349.720123,199.342743 346.990692,198.659317 
	C344.280457,197.980698 341.575287,197.281845 339.057648,195.601562 
	C346.261841,197.110214 353.466064,198.618881 360.923157,200.406860 
z"/>
<path fill="#E2E3EC" opacity="1.000000" stroke="none" 
	d="
M138.974548,314.440582 
	C138.965515,313.645599 138.946411,313.250305 138.924454,312.558258 
	C142.033310,319.286530 145.145035,326.311554 148.256760,333.336548 
	C147.709106,333.566040 147.161453,333.795502 146.613800,334.024994 
	C144.064026,327.630066 141.514252,321.235168 138.974548,314.440582 
z"/>
<path fill="#F4F4F4" opacity="1.000000" stroke="none" 
	d="
M933.547607,410.529114 
	C934.666504,408.199005 935.785339,405.868896 937.218506,402.884247 
	C930.103943,402.884247 923.590759,402.884247 917.077576,402.884247 
	C917.092529,402.686951 917.107483,402.489685 917.122437,402.292389 
	C924.207825,402.292389 931.293213,402.292389 939.427246,402.292389 
	C937.538818,405.720367 936.129089,408.279419 934.253601,410.807556 
	C933.787781,410.776642 933.547668,410.529144 933.547607,410.529114 
z"/>
<path fill="#E7E7E7" opacity="1.000000" stroke="none" 
	d="
M637.583008,300.816345 
	C636.974976,299.111206 636.524170,297.759003 636.073364,296.406799 
	C636.627075,296.238739 637.180847,296.070679 637.734619,295.902618 
	C639.353638,301.386444 640.972656,306.870300 642.591675,312.354156 
	C642.091187,312.510040 641.590698,312.665924 641.090149,312.821777 
	C639.973572,308.937622 638.856934,305.053436 637.583008,300.816345 
z"/>
<path fill="#E2E3EC" opacity="1.000000" stroke="none" 
	d="
M320.988525,191.507828 
	C320.836365,192.097961 320.410645,192.641296 320.086884,192.586151 
	C314.383301,191.614685 308.692108,190.570236 303.164215,188.456360 
	C309.030273,189.365067 314.896362,190.273788 320.988525,191.507828 
z"/>
<path fill="#D957A6" opacity="1.000000" stroke="none" 
	d="
M470.221558,472.170685 
	C471.326508,472.070679 472.068054,472.106812 473.559753,472.179474 
	C469.774139,476.062225 466.334625,478.113770 461.337006,475.641693 
	C464.377014,474.451935 467.117615,473.379364 470.221558,472.170685 
z"/>
<path fill="#EAEBF1" opacity="1.000000" stroke="none" 
	d="
M735.884399,695.035339 
	C729.782471,694.868591 724.161804,694.701843 718.541138,694.535095 
	C718.560120,694.276978 718.579041,694.018860 718.598022,693.760742 
	C726.598267,693.760742 734.598511,693.760742 742.598816,693.760742 
	C742.594482,694.185608 742.590088,694.610474 742.585754,695.035339 
	C740.512390,695.035339 738.439087,695.035339 735.884399,695.035339 
z"/>
<path fill="#EAEBF1" opacity="1.000000" stroke="none" 
	d="
M655.668762,348.205109 
	C652.548462,345.813629 649.285217,343.581848 646.365112,340.966797 
	C644.781067,339.548218 643.781372,337.477051 643.152954,335.563751 
	C647.058411,338.820831 650.989136,342.048737 654.837769,345.371613 
	C655.322876,345.790527 655.376648,346.708954 655.652344,347.765106 
	C655.674377,348.134277 655.668762,348.205109 655.668762,348.205109 
z"/>
<path fill="#E2E3EC" opacity="1.000000" stroke="none" 
	d="
M140.691040,224.980484 
	C138.266052,229.632233 135.841080,234.283981 132.915009,239.896988 
	C133.241455,233.452545 135.786484,229.091095 139.811920,225.037125 
	C140.336380,224.946182 140.691040,224.980484 140.691040,224.980484 
z"/>
<path fill="#FEFEFE" opacity="1.000000" stroke="none" 
	d="
M923.532227,462.000122 
	C927.521851,463.556763 927.521851,463.556763 925.041260,467.345764 
	C924.935852,465.662750 924.864746,464.527283 924.769592,463.008118 
	C918.387390,463.008118 911.964722,463.008118 905.542114,463.008118 
	C905.529358,462.671997 905.516663,462.335846 905.503906,461.999725 
	C911.362671,461.999725 917.221436,461.999725 923.532227,462.000122 
z"/>
<path fill="#FEFEFE" opacity="1.000000" stroke="none" 
	d="
M853.072021,514.001221 
	C850.277405,514.001221 847.968811,514.001221 845.381836,514.001221 
	C845.381836,512.602905 845.381836,511.366913 845.381836,510.130890 
	C845.717041,510.103790 846.052246,510.076691 846.387451,510.049622 
	C846.473022,510.984314 846.558655,511.919037 846.668335,513.116577 
	C854.219727,513.116577 861.797180,513.116577 869.374573,513.116577 
	C869.379822,513.411438 869.385010,513.706360 869.390198,514.001221 
	C864.112854,514.001221 858.835449,514.001221 853.072021,514.001221 
z"/>
<path fill="#E2E3EC" opacity="1.000000" stroke="none" 
	d="
M670.949829,357.662872 
	C671.004395,358.007141 671.110657,358.365692 671.078125,358.549866 
	C666.177551,355.129211 661.309448,351.524384 656.055054,348.062317 
	C655.668762,348.205109 655.674377,348.134277 655.633667,348.136688 
	C662.255920,348.594666 666.101746,353.746582 670.949829,357.662872 
z"/>
<path fill="#F4F4F4" opacity="1.000000" stroke="none" 
	d="
M259.947174,183.576202 
	C251.720078,183.975113 243.264969,183.990173 234.332291,183.985779 
	C236.348312,183.637238 238.838715,183.060257 241.336105,183.028076 
	C247.462067,182.949097 253.591263,183.121262 259.947174,183.576202 
z"/>
<path fill="#BEBDBD" opacity="1.000000" stroke="none" 
	d="
M827.035645,420.996826 
	C832.257263,420.996826 836.986145,420.996826 841.715088,420.996826 
	C841.716675,421.204437 841.718262,421.412018 841.719910,421.619629 
	C833.578125,421.619629 825.436340,421.619629 817.294617,421.619629 
	C817.288330,421.412018 817.282043,421.204437 817.275757,420.996826 
	C820.364807,420.996826 823.453857,420.996826 827.035645,420.996826 
z"/>
<path fill="#E7E7E7" opacity="1.000000" stroke="none" 
	d="
M621.070679,268.931702 
	C623.693298,271.922272 626.315979,274.912872 628.938599,277.903442 
	C628.409973,278.312103 627.881409,278.720734 627.352783,279.129364 
	C625.196838,276.123901 623.040894,273.118408 620.844238,269.673462 
	C620.803528,269.234039 621.070679,268.931702 621.070679,268.931702 
z"/>
<path fill="#E7E7E7" opacity="1.000000" stroke="none" 
	d="
M613.948975,262.045593 
	C616.314453,264.104492 618.679932,266.163391 621.058044,268.576996 
	C621.070679,268.931702 620.803528,269.234039 620.670532,269.385803 
	C618.327576,267.234283 616.117554,264.931000 613.953369,262.311707 
	C613.999329,261.995728 613.948975,262.045593 613.948975,262.045593 
z"/>
<path fill="#BEBDBD" opacity="1.000000" stroke="none" 
	d="
M800.894226,351.557495 
	C801.023132,351.068542 801.192383,351.040131 801.617554,350.984497 
	C801.918091,357.008789 801.962585,363.060333 801.988159,369.565613 
	C801.969177,370.019379 801.997681,369.976105 801.997681,369.976105 
	C801.650452,365.945282 801.253113,361.917908 800.977783,357.882202 
	C800.845032,355.935547 800.941833,353.973236 800.894226,351.557495 
z"/>
<path fill="#F4F4F4" opacity="1.000000" stroke="none" 
	d="
M261.453125,184.954605 
	C261.031067,184.897385 260.939911,184.500214 260.985077,184.301529 
	C265.189362,184.102844 269.348480,184.102844 273.507599,184.102844 
	C273.520752,184.405838 273.533905,184.708832 273.547058,185.011826 
	C269.656433,185.011826 265.765808,185.011826 261.453125,184.954605 
z"/>
<path fill="#EEEFF4" opacity="1.000000" stroke="none" 
	d="
M140.895721,224.699341 
	C140.691040,224.980484 140.336380,224.946182 140.159729,224.969131 
	C141.744156,222.046860 143.505234,219.101654 145.782425,216.220581 
	C146.443283,216.393402 146.588028,216.502075 146.732773,216.610764 
	C144.855316,219.213242 142.977844,221.815704 140.895721,224.699341 
z"/>
<path fill="#E7E7E7" opacity="1.000000" stroke="none" 
	d="
M609.580566,258.816742 
	C607.054077,256.887787 604.527649,254.958832 601.905273,252.633545 
	C601.809387,252.237198 602.066589,251.926956 602.066589,251.926941 
	C604.664612,253.703995 607.262695,255.481049 609.836548,257.796326 
	C609.735107,258.495239 609.657837,258.656006 609.580566,258.816742 
z"/>
<path fill="#E7E7E7" opacity="1.000000" stroke="none" 
	d="
M601.681885,252.393280 
	C598.787170,250.913773 596.019897,249.278152 593.252625,247.642548 
	C593.430115,247.286301 593.607544,246.930054 593.785034,246.573807 
	C596.472290,248.132568 599.159607,249.691315 601.956787,251.588516 
	C602.066589,251.926956 601.809387,252.237198 601.681885,252.393280 
z"/>
<path fill="#616161" opacity="1.000000" stroke="none" 
	d="
M111.417313,379.894714 
	C111.871681,379.928345 112.257141,380.221619 112.268341,380.463531 
	C108.308464,380.876312 104.337402,381.047150 99.932053,381.223083 
	C99.458298,381.006561 99.418831,380.785004 99.174316,380.295258 
	C102.967155,379.971741 106.965050,379.916412 111.417313,379.894714 
z"/>
<path fill="#D5D5D5" opacity="1.000000" stroke="none" 
	d="
M926.864868,491.868652 
	C927.671265,490.897980 928.477661,489.927307 929.642822,488.978943 
	C930.001587,489.001282 929.959717,488.980133 929.941040,488.960907 
	C929.289246,490.043579 928.656189,491.145477 927.614990,492.259827 
	C927.092834,492.137726 926.978821,492.003204 926.864868,491.868652 
z"/>
<path fill="#BEBDBD" opacity="1.000000" stroke="none" 
	d="
M801.949158,370.035767 
	C804.017761,370.052155 806.106323,370.052155 808.194946,370.052155 
	C808.195007,370.258759 808.195129,370.465363 808.195190,370.671967 
	C806.247009,370.671967 804.298889,370.671967 802.174194,370.324036 
	C801.997681,369.976105 801.969177,370.019379 801.949158,370.035767 
z"/>
<path fill="#E7E7E7" opacity="1.000000" stroke="none" 
	d="
M611.092346,258.902771 
	C612.073669,259.710541 613.054932,260.518311 613.992615,261.685852 
	C613.948975,262.045593 613.999329,261.995728 614.022461,261.968872 
	C612.944580,261.296509 611.843628,260.650970 610.728027,259.609161 
	C610.713379,259.212860 611.092346,258.902771 611.092346,258.902771 
z"/>
<path fill="#EEEFF4" opacity="1.000000" stroke="none" 
	d="
M147.905182,213.913269 
	C149.036880,212.651184 150.168579,211.389099 151.829987,210.200592 
	C152.524628,210.384979 152.689575,210.495789 152.854523,210.606598 
	C151.607346,211.847382 150.360184,213.088165 148.694214,214.314819 
	C148.152023,214.171570 148.028610,214.042419 147.905182,213.913269 
z"/>
<path fill="#FEFEFE" opacity="1.000000" stroke="none" 
	d="
M768.804565,364.910095 
	C768.849426,365.608337 768.940186,366.319122 769.030884,367.029938 
	C768.751709,367.036011 768.472595,367.042084 768.193420,367.048157 
	C768.243408,366.413452 768.293396,365.778748 768.637329,365.058655 
	C768.931335,364.973236 768.850525,364.922699 768.804565,364.910095 
z"/>
<path fill="#EEEFF4" opacity="1.000000" stroke="none" 
	d="
M148.433472,214.517090 
	C148.113190,215.253113 147.634857,215.772736 146.944641,216.451569 
	C146.588028,216.502075 146.443283,216.393402 146.104248,216.095032 
	C146.387680,215.301285 146.865387,214.697205 147.624130,214.003204 
	C148.028610,214.042419 148.152023,214.171570 148.433472,214.517090 
z"/>
<path fill="#EEEFF4" opacity="1.000000" stroke="none" 
	d="
M152.129974,210.084259 
	C152.484177,209.621170 153.068085,209.347992 153.652008,209.074814 
	C153.523621,209.502853 153.395218,209.930893 153.060669,210.482773 
	C152.689575,210.495789 152.524628,210.384979 152.129974,210.084259 
z"/>
<path fill="#F4F4F4" opacity="1.000000" stroke="none" 
	d="
M933.906982,410.901184 
	C933.906921,411.641632 933.787659,412.257568 933.205811,412.816772 
	C932.743225,412.760071 932.414124,412.497162 932.414124,412.497162 
	C932.647644,411.968231 932.881104,411.439301 933.331177,410.719757 
	C933.547668,410.529144 933.787781,410.776642 933.906982,410.901184 
z"/>
<path fill="#D5D5D5" opacity="1.000000" stroke="none" 
	d="
M927.357117,492.489929 
	C927.302368,492.998383 927.097351,493.289154 926.533875,493.452087 
	C926.068787,493.169617 925.962097,493.015015 925.855469,492.860413 
	C926.027710,492.576874 926.199951,492.293335 926.618530,491.939209 
	C926.978821,492.003204 927.092834,492.137726 927.357117,492.489929 
z"/>
<path fill="#D5D5D5" opacity="1.000000" stroke="none" 
	d="
M925.085815,494.021484 
	C925.030518,493.575806 925.199585,493.293091 925.612061,492.935425 
	C925.962097,493.015015 926.068787,493.169617 926.297913,493.577972 
	C926.353455,494.029633 926.235535,494.189972 925.931885,494.381226 
	C925.634949,494.361267 925.472595,494.272827 925.085815,494.021484 
z"/>
<path fill="#E7E7E7" opacity="1.000000" stroke="none" 
	d="
M610.511230,259.350952 
	C610.090027,259.411957 609.907104,259.283539 609.670349,258.960266 
	C609.657837,258.656006 609.735107,258.495239 609.961914,258.112732 
	C610.397522,258.061249 610.683411,258.231506 611.030884,258.652283 
	C611.092346,258.902771 610.713379,259.212860 610.511230,259.350952 
z"/>
<path fill="#F4F4F4" opacity="1.000000" stroke="none" 
	d="
M932.895569,412.905518 
	C932.763672,413.289246 932.479431,413.527527 932.195190,413.765747 
	C932.143738,413.497955 932.092346,413.230164 932.227539,412.729767 
	C932.414124,412.497162 932.743225,412.760071 932.895569,412.905518 
z"/>
<path fill="#020306" opacity="1.000000" stroke="none" 
	d="
M222.249573,317.447937 
	C221.171814,321.957916 220.208282,326.078156 219.244736,330.198425 
	C218.801346,330.432770 218.357956,330.667145 217.914551,330.901520 
	C216.650970,303.719543 202.209412,289.776184 175.193817,287.516266 
	C201.929733,285.254150 216.675491,271.685028 218.427277,244.703400 
	C222.226959,255.731293 222.938797,267.303528 231.427841,275.462433 
	C239.916504,283.620972 251.405655,284.515869 263.554260,287.792023 
	C244.042618,290.957245 226.748688,295.356689 222.249573,317.447937 
z"/>
<path fill="#04050B" opacity="1.000000" stroke="none" 
	d="
M336.517090,283.302643 
	C335.272797,283.986084 333.790985,284.760864 332.219574,285.051971 
	C322.648560,286.825165 316.860596,292.344299 315.073578,301.973389 
	C314.862701,303.109802 314.553619,304.230042 314.245270,305.345398 
	C314.115692,305.814240 313.869629,306.250916 313.226288,307.754242 
	C312.028595,293.100922 304.851257,284.982361 290.216156,283.832550 
	C304.413330,282.082367 312.070007,274.850250 313.605438,260.539551 
	C315.247192,274.416626 322.660187,282.008942 336.517090,283.302643 
z"/>
<path fill="#020306" opacity="1.000000" stroke="none" 
	d="
M806.127075,586.048706 
	C813.829346,588.479492 821.182983,590.771790 829.149658,593.255188 
	C818.192139,596.393188 806.624939,597.098145 798.479736,605.569763 
	C790.422913,613.949524 789.370850,625.237915 786.460388,636.774048 
	C783.333618,625.435608 782.490173,614.004883 774.401184,605.639038 
	C766.237366,597.195618 754.867676,596.335083 743.051758,593.139160 
	C754.536987,589.695007 766.070129,589.064209 774.216797,580.698242 
	C782.468567,572.224426 783.341919,560.712524 786.422119,549.427368 
	C790.166138,563.545471 791.135315,578.417603 806.127075,586.048706 
z"/>
<path fill="#04050B" opacity="1.000000" stroke="none" 
	d="
M716.611206,609.681396 
	C719.848816,610.599304 722.725952,611.375427 725.603027,612.151611 
	C711.998291,613.987122 704.082886,621.372742 702.803284,635.830017 
	C701.149170,621.560852 693.757080,614.026550 679.537048,612.476868 
	C693.446655,610.495117 701.729126,603.506104 702.324280,588.924011 
	C705.180115,597.305603 706.187073,606.514771 716.611206,609.681396 
z"/>
<path fill="#040404" opacity="1.000000" stroke="none" 
	d="
M347.750092,466.149872 
	C345.869293,460.334778 342.938934,454.867096 342.780060,449.320038 
	C342.435089,437.276154 342.806091,425.108765 344.223328,413.150604 
	C345.321167,403.887329 350.919250,398.791382 357.357544,398.317566 
	C363.189728,397.888397 368.636475,402.670929 371.317139,411.795776 
	C375.865906,427.279816 375.728729,442.933807 371.544434,458.515869 
	C371.035278,460.411957 370.102600,462.237335 369.122986,463.956970 
	C363.870911,473.176758 355.372162,474.157471 347.750092,466.149872 
M350.995453,448.242706 
	C351.294464,450.039246 351.476135,451.865112 351.916626,453.626282 
	C352.861633,457.404846 353.318939,463.026550 357.981232,462.289337 
	C360.445892,461.899628 363.271057,456.147430 363.756134,452.524719 
	C364.672760,445.679657 364.562683,438.569000 363.866974,431.670837 
	C363.116577,424.230530 360.288971,417.445221 353.217255,412.523895 
	C349.874573,424.498169 350.331146,435.907867 350.995453,448.242706 
z"/>
<path fill="#080602" opacity="1.000000" stroke="none" 
	d="
M623.675354,435.961090 
	C633.752197,437.104401 638.718018,441.202393 640.012512,450.785095 
	C640.842163,456.926605 640.712708,463.362579 639.895813,469.518250 
	C638.959229,476.576202 634.353210,481.189240 627.113281,482.222443 
	C622.105042,482.937195 616.996338,482.947693 611.665771,483.290009 
	C611.665771,467.146820 611.665771,451.767700 611.665771,435.943390 
	C615.673523,435.943390 619.446167,435.943390 623.675354,435.961090 
M620.132812,461.528137 
	C620.132812,465.642975 620.132812,469.757812 620.132812,473.932037 
	C624.448303,474.298462 628.301270,474.503815 630.380981,470.622589 
	C633.643127,464.534698 632.525146,458.450989 628.453674,453.342194 
	C627.029114,451.554688 623.561890,451.395142 620.133179,450.173523 
	C620.133179,454.638611 620.133179,457.594543 620.132812,461.528137 
z"/>
<path fill="#080702" opacity="1.000000" stroke="none" 
	d="
M618.907715,380.008057 
	C631.189331,380.481110 635.225342,383.842316 636.253174,395.701416 
	C636.776733,401.742462 636.378906,408.024811 635.304626,414.001587 
	C633.994568,421.289978 629.772461,424.364868 622.374939,424.810730 
	C618.928528,425.018463 615.459290,424.846222 611.713196,424.846222 
	C611.713196,409.910461 611.713196,395.332001 611.713196,380.006775 
	C613.957336,380.006775 616.202759,380.006775 618.907715,380.008057 
M626.403870,413.688416 
	C627.014648,410.535614 627.625366,407.382782 628.236084,404.229980 
	C627.867188,404.164703 627.498352,404.099457 627.129456,404.034210 
	C625.258362,407.049103 623.387207,410.064026 620.925781,414.030029 
	C623.203125,414.163055 624.597351,414.244507 626.403870,413.688416 
z"/>
<path fill="#020200" opacity="1.000000" stroke="none" 
	d="
M168.923645,482.200439 
	C163.575119,482.630249 158.637375,482.964539 153.334457,483.323547 
	C153.334457,467.307220 153.334457,451.806793 153.334457,436.133484 
	C158.248093,436.133484 163.074600,435.685486 167.782227,436.242462 
	C174.233276,437.005707 178.801346,440.787323 180.750763,447.101257 
	C183.102692,454.718933 183.188812,462.506165 181.340012,470.234344 
	C179.821976,476.579895 175.904770,480.746155 168.923645,482.200439 
z"/>
<path fill="#020201" opacity="1.000000" stroke="none" 
	d="
M174.617157,419.478149 
	C168.729401,426.918091 160.836563,424.311798 153.294724,425.001923 
	C153.294724,409.954834 153.294724,395.364471 153.294724,379.661682 
	C158.564697,380.177795 164.151520,379.917847 169.141464,381.518616 
	C172.099701,382.467560 175.458374,385.972382 176.310944,388.986053 
	C179.157028,399.046600 179.493347,409.321289 174.617157,419.478149 
z"/>
<path fill="#020201" opacity="1.000000" stroke="none" 
	d="
M273.328705,435.148254 
	C273.328705,446.939911 273.340393,458.253113 273.323975,469.566223 
	C273.315887,475.157104 268.023834,480.787384 261.774689,481.913635 
	C256.290710,482.901978 251.390076,480.137512 250.098557,473.609863 
	C245.917664,452.478607 249.585648,438.515747 267.037598,431.337006 
	C268.845856,430.593170 270.584625,429.680511 273.328766,428.387726 
	C273.328766,430.913727 273.328766,432.791748 273.328705,435.148254 
z"/>
<path fill="#060403" opacity="1.000000" stroke="none" 
	d="
M471.813965,437.698975 
	C464.170197,448.856567 453.403198,452.736237 440.305206,453.129089 
	C439.251007,436.705231 438.839081,420.851257 448.442657,406.723022 
	C449.818604,404.698883 451.614441,402.803925 453.594696,401.373566 
	C462.659180,394.826294 473.308044,398.920502 475.949829,409.969757 
	C478.248352,419.583588 476.942078,428.770874 471.813965,437.698975 
M451.547668,419.191895 
	C448.979248,426.921753 448.164459,434.832947 448.508423,443.012115 
	C460.129974,441.270874 467.547821,432.678009 468.068756,420.943451 
	C468.399841,413.485413 465.606079,411.132111 458.045898,411.707428 
	C453.511322,412.052521 453.384125,415.738983 451.547668,419.191895 
z"/>
<path fill="#516FFA" opacity="1.000000" stroke="none" 
	d="
M350.974731,447.785858 
	C350.331146,435.907867 349.874573,424.498169 353.217255,412.523895 
	C360.288971,417.445221 363.116577,424.230530 363.866974,431.670837 
	C364.562683,438.569000 364.672760,445.679657 363.756134,452.524719 
	C363.271057,456.147430 360.445892,461.899628 357.981232,462.289337 
	C353.318939,463.026550 352.861633,457.404846 351.916626,453.626282 
	C351.476135,451.865112 351.294464,450.039246 350.974731,447.785858 
z"/>
<path fill="#F462BC" opacity="1.000000" stroke="none" 
	d="
M620.132996,461.039307 
	C620.133179,457.594543 620.133179,454.638611 620.133179,450.173523 
	C623.561890,451.395142 627.029114,451.554688 628.453674,453.342194 
	C632.525146,458.450989 633.643127,464.534698 630.380981,470.622589 
	C628.301270,474.503815 624.448303,474.298462 620.132812,473.932037 
	C620.132812,469.757812 620.132812,465.642975 620.132996,461.039307 
z"/>
<path fill="#4761DA" opacity="1.000000" stroke="none" 
	d="
M626.197754,414.007202 
	C624.597351,414.244507 623.203125,414.163055 620.925781,414.030029 
	C623.387207,410.064026 625.258362,407.049103 627.129456,404.034210 
	C627.498352,404.099457 627.867188,404.164703 628.236084,404.229980 
	C627.625366,407.382782 627.014648,410.535614 626.197754,414.007202 
z"/>
<path fill="#F964C0" opacity="1.000000" stroke="none" 
	d="
M451.705566,418.829895 
	C453.384125,415.738983 453.511322,412.052521 458.045898,411.707428 
	C465.606079,411.132111 468.399841,413.485413 468.068756,420.943451 
	C467.547821,432.678009 460.129974,441.270874 448.508423,443.012115 
	C448.164459,434.832947 448.979248,426.921753 451.705566,418.829895 
z"/>
</svg>